{"title":"street fighter.3gp","uid":5120946,"size":48950336,"categoryP":"video","categoryS":"handheld","magnet":"?xt=urn:btih:af8797067b9f1b972f67cd97f8ea48b154f79a37&amp;dn=street+fighter.3gp&amp;tr=udp%3A%2F%2Ftracker.openbittorrent.com%3A80&amp;tr=udp%3A%2F%2Fopen.demonii.com%3A1337&amp;tr=udp%3A%2F%2Ftracker.coppersurfer.tk%3A6969&amp;tr=udp%3A%2F%2Fexodus.desync.com%3A6969","seeders":0,"leechers":0,"uploader":"chitchatid","files":1,"time":1255346957,"description":"General\nComplete name                    : street fighter.3gp\nFormat                           : MPEG-4\nFormat profile                   : 3GPP Media Release 4\nCodec ID                         : 3gp4\nFile size                        : 46.7 MiB\nDuration                         : 1h 32mn\nOverall bit rate                 : 70.2 Kbps\nEncoded date                     : UTC 1970-01-01 00:00:00\nTagged date                      : UTC 1970-01-01 00:00:00\n\nVideo\nID                               : 1\nFormat                           : H.263\nCodec ID                         : s263\nDuration                         : 1h 32mn\nBit rate mode                    : Variable\nBit rate                         : 55.1 Kbps\nWidth                            : 128 pixels\nHeight                           : 96 pixels\nDisplay aspect ratio             : 4/3\nFrame rate mode                  : Constant\nFrame rate                       : 10.000 fps\nBits/(Pixel*Frame)               : 0.449\nStream size                      : 36.7 MiB (79%)\nEncoded date                     : UTC 1970-01-01 00:00:00\nTagged date                      : UTC 1970-01-01 00:00:00\n\nAudio\nID                               : 2\nFormat                           : AMR\nFormat/Info                      : Adaptive Multi-Rate\nFormat profile                   : Narrow band\nCodec ID                         : samr\nDuration                         : 1h 32mn\nBit rate mode                    : Constant\nBit rate                         : 12.8 Kbps\nChannel(s)                       : 2 channels\nSampling rate                    : 8 000 Hz\nResolution                       : 16 bits\nStream size                      : 8.51 MiB (18%)\nEncoded date                     : UTC 1970-01-01 00:00:00\nTagged date                      : UTC 1970-01-01 00:00:00\n\n","torrent":{"xt":"urn:btih:af8797067b9f1b972f67cd97f8ea48b154f79a37","amp;dn":"street+fighter.3gp","amp;tr":["udp%3A%2F%2Ftracker.openbittorrent.com%3A80","udp%3A%2F%2Fopen.demonii.com%3A1337","udp%3A%2F%2Ftracker.coppersurfer.tk%3A6969","udp%3A%2F%2Fexodus.desync.com%3A6969"],"infoHash":"af8797067b9f1b972f67cd97f8ea48b154f79a37","infoHashBuffer":{"type":"Buffer","data":[175,135,151,6,123,159,27,151,47,103,205,151,248,234,72,177,84,247,154,55]},"announce":[],"urlList":[]}}